<?xml version="1.0" encoding="utf-8"?>
<!-- Generator: Adobe Illustrator 27.0.0, SVG Export Plug-In . SVG Version: 6.00 Build 0)  -->
<svg version="1.1" id="Layer_1" xmlns="http://www.w3.org/2000/svg" xmlns:xlink="http://www.w3.org/1999/xlink" x="0px" y="0px"
	 viewBox="0 0 640 480" style="enable-background:new 0 0 640 480;" xml:space="preserve">
<style type="text/css">
	.st0{fill:#231F20;}
</style>
<g>
	<path class="st0" d="M502.06,381.53c-2.94,0-10.6-3.92-11.91-16.46c-0.16-1.31-0.16-2.77-0.16-4.73c0-15.98,5.22-51.04,15.81-80.22
		l11.91-32.29c0,0,58.37-79.56,58.37-112.99v-1.14c0.16-0.33,0.16-0.65,0.16-0.98c0-1.96-1.63-5.05-4.9-5.05
		c-3.75,0-9.45,3.75-17.29,16.79c-16.14,27.07-27.07,60.01-39.95,96.52c0,0-4.4-9.78-15.48-9.78c-1.96,0-3.92,0.16-6.03,0.81
		c-11.38,3.08-19.74,13.5-25.22,25.28c-16.79,12.22-31.59,22.5-44.08,22.5c-9.95,0-18.59-6.36-25.76-22.82
		c-2.11-4.57-4.9-6.53-8.15-6.53c-7.17,0-16.46,10.28-25.6,22.17l11.08-37.01v-0.33c0-3.75-2.94-5.88-5.88-5.88
		c-2.44,0-4.9,1.46-5.71,4.73l-4.07,16.28c-0.67,0.35-1.35,1.08-1.97,2.31c-5.71,7.17-44.18,29.02-64.89,29.02
		c-7.99,0-13.37-3.09-13.37-11.58c0-3.26,0.81-7.34,2.61-12.23c2.77-7.01,4.07-12.56,4.07-16.46c0-3.59-1.14-5.71-3.26-6.03
		c-0.33-0.16-0.81-0.33-1.31-0.33c-3.09,0-8.8,4.07-13.7,8.15c-2.44-2.44-6.2-4.07-11.25-4.07c-2.61,0-5.55,0.33-8.8,1.31
		c-12.55,3.75-22.64,15.95-27.38,26.38c-27.58,30.63-124.23,131.61-177.9,131.61c-11.08,0-20.38-4.24-26.74-14.18
		c-7.49-11.58-10.6-25.43-10.6-40.76c0-22.67,6.86-48.58,16.63-75.16c27.87-75.33,86.9-134.67,105.65-153.92
		c21.52-22.01,36.69-30.81,46.96-30.81c13.85,0,19.07,15.81,19.07,36.36c0,37.99-17.61,92.12-29.51,92.12
		c-0.65,0-1.31-0.33-1.96-0.65c-0.65,1.63-0.98,3.09-0.98,4.4c0,4.24,3.75,6.36,7.82,6.36c4.73,0,9.95-2.61,11.08-6.86
		c11.74-29.02,19.4-64.73,19.4-92.78c0-27.24-7.34-47.29-25.11-47.29c-12.72,0-31.14,10.43-56.09,36.03
		c-19.07,19.4-74.03,78.75-102.23,154.9C6.03,292,0,317.43,0,340.27c0,18.1,3.75,34.4,12.56,48.1
		c7.34,11.41,17.77,16.31,30.16,16.31c51.75,0,137.28-84.53,174.34-123.9c0.26,1.32,0.75,2.51,1.59,3.58
		c1.14,1.31,2.44,2.28,4.24,2.61c0.33,0,0.65,0.16,0.81,0.16c7.01,0,21.69-13.7,34.56-25.93c2.77-2.61,3.75-3.42,6.03-5.71
		l0.48,1.46c0.65,0.33,1.31,0.48,1.96,0.48c1.79,0,3.75-0.98,5.22-3.09v-0.65c0-0.98,0-2.94-0.65-4.9c3.75-3.59,6.2-5.88,6.2-5.88
		v0.16c0,1.31-2.11,7.01-3.09,13.21c-1.14,4.57-1.63,8.32-1.63,11.58c0,12.23,7.34,16.63,17.77,16.63
		c20.89,0,54.07-17.26,66.36-24.96l-9.47,37.85v0.65c0,2.11,1.96,3.09,4.24,3.09c2.61,0,5.71-1.14,6.68-3.26
		c0.33-3.42,24.3-37.01,32.61-37.01c0.98,0,1.79,0.65,2.29,2.11c7.49,16.63,17.94,22.34,29.02,22.34c13.94,0,28.98-9.03,41.12-17.88
		c-0.35,1.12-0.7,2.26-1.01,3.36c-0.98,3.75-1.63,7.01-1.63,9.95c0,7.66,3.42,12.56,8.8,12.56c1.63,0,3.59-0.48,5.55-1.46
		c10.93-5.22,33.92-33.1,33.92-33.1c-6.36,13.7-21.84,64.41-21.84,97.33c0,1.96,0,3.92,0.17,5.88c0,0,1.46,14.5,8.97,22.5
		c0,0,3.26,3.59,6.2,3.59c0.65,0,1.31-0.16,1.79-0.48c1.14-0.65,1.63-1.46,1.63-2.44C505.98,383.31,504.02,381.53,502.06,381.53z
		 M556.19,149.68c0,0,8.97-14.68,12.89-15h0.16c0.81,0,1.14,0.48,1.14,1.46c0,3.26-3.75,10.93-6.03,16.46
		c-3.09,7.34-24.13,48.1-38.15,72.4C526.19,225,542.65,171.02,556.19,149.68z M234.99,272.77c-0.65,0-0.98-0.33-0.98-0.81
		c0-3.75,13.7-21.52,21.52-21.52c0.98,0,1.79,0.16,2.61,0.81C247.86,264.95,238.08,272.77,234.99,272.77z M483.31,277.17
		c-5.88,6.86-9.45,9.45-11.41,9.45c-1.46,0-2.11-1.31-2.11-3.42c0-4.9,3.26-14.02,6.85-20.05c7.01-12.23,17.12-22.01,24.3-23.15
		c0.48,0,0.98-0.16,1.46-0.16c6.03,0,6.68,7.01,6.68,7.01S503.2,254.18,483.31,277.17z"/>
	<path class="st0" d="M572.66,234.77c-2.11,0-4.24,0.65-6.53,1.96c-2.94,1.63-6.2,4.24-9.13,7.66c-5.38,6.36-9.95,15-9.95,24.13
		c0,4.73,1.14,9.62,4.24,14.18c3.59,5.55,9.45,7.66,16.46,7.66c26.74,0,70.59-31.64,70.92-31.79c0.81-0.65,1.31-1.46,1.31-2.29
		c0-1.96-1.79-3.92-3.92-3.92c-0.65,0-1.31,0.16-1.96,0.65c-0.16,0.16-45.16,34.08-67.67,34.08c-4.57,0-8.15-1.46-10.28-4.73
		c-1.96-2.94-2.61-7.49-2.61-11.41c0-1.14,0.17-2.28,0.17-3.26c4.57-1.79,26.58-10.6,26.58-24.3c0-0.65-0.16-1.14-0.16-1.79
		c-0.33-3.09-1.96-5.22-4.24-6.2C574.94,234.94,573.81,234.77,572.66,234.77z M556.04,259.24c7.49-9.78,10.6-15.81,13.85-16.31
		c0.33,0,0.48,0.16,0.48,0.48C570.39,244.89,566.47,250.27,556.04,259.24z"/>
	<path class="st0" d="M424.7,322.13l-53.82,0.14c-17.95,0.14-35.89,0.2-53.83,0.47c-35.88,0.4-71.77,0.99-107.65,2.13
		c35.88,1.14,71.77,1.72,107.65,2.13c17.94,0.26,35.88,0.3,53.83,0.45l53.82,0.16l53.83-0.14c1.97-0.01,3.93-0.03,5.9-0.04
		c0.14-0.85,0.28-1.69,0.43-2.54c0.14-0.85,0.3-1.69,0.45-2.54c-2.26-0.01-4.53-0.03-6.78-0.06L424.7,322.13z"/>
	<path class="st0" d="M500,322.43c-0.17,0.82-0.33,1.63-0.47,2.44c-0.17,0.82-0.31,1.65-0.45,2.44c11.08-0.09,22.18-0.16,33.27-0.31
		c35.88-0.4,71.76-1.01,107.65-2.13c-35.89-1.14-71.77-1.73-107.65-2.13C521.56,322.58,510.79,322.5,500,322.43z"/>
</g>
</svg>
